<svg width="864" height="730" xmlns="http://www.w3.org/2000/svg" desc="Created with imagetracer.js version 1.2.6" version="1.1">

    <g>
        <title>Layer 1</title>
        <path id="svg_2" d="m316.5,704l0.5,19l-107.5,0l-0.5,-0.5l0,-17.5l106.5,0l1,-1z" stroke="rgb(144,144,144)" fill="rgb(144,144,144)"/>
        <path id="svg_3" d="m606,705l105.5,0l0.5,0.5l0,18.5l-105.5,0l-0.5,-0.5l0,-18.5z" stroke="rgb(144,144,144)" fill="rgb(144,144,144)"/>
        <path id="svg_4" d="m0,0l864,0l0,730l-864,0l0,-730zm711,10l-1,1l-26,1l-11,3l-14,6l-9,7q-9,7 -15,18l-5,15l-2,10l0,8l-1,1l1,19l4,17q5,13 14,22q13,16 41,19l1,2l1,10l3,6l11,8l8,2l10,0l1,2l0,12l-2,10l-9,18l-12,12l-24,15l-4,0l-4,3l-36,8l-22,3l-38,9l-22,7l-2,2l-13,4l-4,3l-13,4l-3,-3l-2,-15l-5,-18l-23,-45l-3,-28l3,-3l7,0l12,-5q9,-6 8,-21l2,-2l8,-1l12,-4l21,-14q7,-8 12,-19l4,-12l1,-11l1,-1l0,-19l-1,-1l-1,-11q-4,-16 -12,-27q-8,-10 -19,-17l-16,-7l-14,-1l-1,-1l-88,0l-1,1l-9,0q-20,4 -33,14l-14,15q-7,11 -10,27l0,36q4,18 15,31l21,16l7,3l14,3l3,5l0,4l4,10q8,8 25,9l2,3l0,23l1,1l0,19q-2,1 -1,6q-2,7 -7,12l-4,0l-5,-4l-20,-10l-31,-11q-11,-1 -19,-5l-33,-6l-17,-1l-1,-1l-14,0l-1,-1l-1,1l-16,1l-1,1l-48,3l-1,1l-11,0l-1,1l-35,0l-1,-1l-10,0l-17,-5l-7,-5l-8,-9l0,-6l5,-5l15,-5l5,-3l7,-8l2,-11l7,-4l17,-5l16,-11q9,-9 15,-21l5,-16l1,-16l1,-1l-1,-15l-6,-21l-2,-5l-11,-14l-16,-12l-12,-5l-15,-3l-94,0l-20,4q-12,4 -19,11q-18,15 -23,42l0,32q3,1 1,7l3,10l10,18l18,14l13,6l10,1l3,4q1,10 6,17q5,8 20,8l4,8l1,6l5,10l6,8q8,9 20,16l29,12l40,8l28,3l1,1l10,0l7,2l18,1l32,6l8,3l5,0l3,2l4,0l11,4l2,2l6,1l26,13l1,3l7,4l19,17l21,29l5,10l0,3l2,2l0,3l2,2l4,15l0,12l-3,10l0,6l-4,5l-8,18l-11,18l-3,9l-1,9l-3,3l-63,0l-1,1l-8,0l-48,15l-16,7l-94,0l-1,1l-27,0l-3,1l-5,5l0,17l-1,1l1,31l8,5l17,1l2,3l1,8l10,31l3,7l3,3l2,7l23,38l24,29l-7,13l0,11l-1,1l0,18l1,0l107,0l0,-18l2,-2l286,0l1,2l0,19l1,0l105,0l0,-23q-2,-2 -1,-6q-2,-8 -7,-11l0,-2l25,-29l18,-29l16,-35l9,-33l2,-2l12,0l10,-2l4,-5q-2,-7 1,-8l-1,-40l-5,-5q-5,1 -6,-1l-105,-1l-1,-1q-6,-1 -7,1l-5,-1l-12,-7q-10,-2 -16,-6l-26,-8l-64,-2l-6,-9l-13,-41l1,-5l8,-10l38,-36l25,-19l31,-15l3,0l2,-2l9,-2l14,-5l2,-2l3,0l13,-5l26,-14l13,-11l14,-16l13,-26l4,-15l2,-19l1,-1l2,-28l2,-2l14,-2l6,-4q7,-6 7,-19l3,-3l8,-1l13,-5l12,-7q11,-9 18,-23l5,-14l1,-16l1,-1l-1,-21l-4,-16l-6,-12l-7,-10l-13,-10q-10,-7 -24,-9l-9,0l-1,-1l-30,0l-1,-1l-41,0z" opacity="0" stroke="rgb(0,0,0)" fill="rgb(0,0,0)"/>
        <path id="svg_5" d="m107.5,157l2.5,0.5l-2.5,0.5l0,-1z" stroke="rgb(26,162,82)" fill="rgb(26,162,82)"/>
        <path id="svg_6" d="m113.5,157l8.5,0.5l-8.5,0.5l0,-1z" stroke="rgb(26,162,82)" fill="rgb(26,162,82)"/>
        <path id="svg_7" d="m746.5,158l26.5,0.5l-26.5,0.5l0,-1z" stroke="rgb(26,162,82)" fill="rgb(26,162,82)"/>
        <path id="svg_8" d="m710.5,10l41,0l1,1l30,0l1,1l9,0q14.2,2.3 24,9l13.5,10l7,9.5l6,12l4,16l1,21l-1,1l-1,16l-5,14q-6.7,14.3 -18.5,23.5l-19,10l-15,4l-101,0l-24,-7l-17.5,-13.5q-9.3,-8.7 -14,-22l-4,-17l-1,-19l1,-1l0,-8l2,-10l5,-15q5.6,-10.4 14.5,-17.5l9,-7l14,-6l11,-3l26,-1l1,-1z" stroke="rgb(26,163,83)" fill="rgb(26,163,83)"/>
        <path id="svg_9" d="m73.5,11l94,0l15,3l12,5l16.5,11.5l11,14l2,5l6,21l1,15l-1,1l-1,16l-5,16q-5.8,12.7 -15.5,21.5l-12,9l-24,9l-50,0l-1,-1l-8,0l-4,0l-7,1l-2,-1l-1,1l-31,0l-2,-2l-6,0l-7,-2l-10,-5l-17.5,-14.5l-10,-18l-3,-10q1.5,-5.5 -1,-7l0,-32q5.1,-26.9 22.5,-41.5q7.8,-7.2 19,-11l20,-4z" stroke="rgb(26,163,83)" fill="rgb(26,163,83)"/>
        <path id="svg_10" d="m419.5,11l88,0l1,1l9,0q12.2,2.3 21,8q11.2,6.8 19.5,16.5q8.2,11.2 12,27l1,11l1,1l0,19l-1,1l-1,11l-4,12q-4.5,11.5 -12.5,19.5l-21,14l-21,6l-101,0l-3,-2q-11.4,-0.6 -19,-5l-20.5,-16.5q-10.6,-12.4 -15,-31l0,-36q3.3,-15.2 10,-27l13.5,-14.5l16,-9l17,-5l9,0l1,-1z" stroke="rgb(26,163,83)" fill="rgb(26,163,83)"/>
        <path id="svg_11" d="m103.5,186l2,1l2,0l4,-1l3,1l2,-1l5,1l2,0l15.5,0.5q-5.5,1.5 -4,10l7.5,9.5l7,5l17,5l10,0l1,1l35,0l1,-1l11,0l1,-1l48,-3l1,-1l16,-1l1,-1l1,1l14,0l1,1l17,1l33,6q8.1,3.9 19,5l31,11l20,10l5,4l4,0q5.3,-4.7 7.5,-12.5q-1.2,-4.7 1,-6l0,-19l-1,-1l0,-23.5l14.5,0l1.5,1.5l13,72l0,26l-3,10l13,11l20,21l6,9l6,12l5,25l0,2l0,12l-1,1l-2,17l-6,19l-3,22l0,2l0,16l1,1l-4.5,1.5l-2,-1l-2,0q-4.8,-1.2 -6,1q-1.5,-2.5 -7,-1l-2,0l-3.5,0.5l0.5,1.5q-2.2,0.8 -1.5,-1.5l-2.5,-0.5l-1.5,0.5l0.5,1.5q-1.5,-2.5 -3,1l-3,-3q-3.3,-1.1 -2.5,1.5l3,1l-3,1l0.5,1.5l-2.5,-1.5l-0.5,1.5l-3,-1l0.5,1.5l0.5,1.5l2.5,-1l1,3.5l-1.5,-0.5l-2.5,0.5l0.5,1.5l-2.5,-1.5l1,-3l-2,-1l-1,2l0.5,1.5l-3.5,-1l-1,-4l-2.5,1l-2,0l-2,1l-2.5,-1.5q3.1,-1.7 1.5,-3.5l1,3l3,-1l2,0l2.5,1.5l0.5,1.5l1.5,-0.5l0.5,1.5l0.5,-4q5.3,1.3 4.5,-2l3,0l0,-1q-5.7,-1.3 -7,2l0,-2l-4,1l-3,-1l-2,0l-5.5,0.5l1,2.5l-2,-0.5q2.3,-1.2 -0.5,-2.5l-2,1q-1.2,-2.2 -2.5,0.5l2.5,3.5l1,-2l0.5,1.5l-2,4.5l-3.5,-1l-2.5,1.5q-0.7,-2.2 1.5,-1.5l-1,-2l-1.5,0.5q-1.5,-4.4 1.5,-3.5l0,2q2.3,-0.7 1.5,1.5l1,0l1,-3l-2,-3.5q-5.2,-1 -7.5,2l0,-1l1.5,-0.5l-6.5,-0.5l0,2l-2,-2l-19,0l-2,0l-10.5,-0.5l5,-19l11,-18l8,-18l4,-5l0,-6l3,-10l0,-12l-4,-15l-2,-2l0,-3l-2,-2l0,-3l-5,-10l-21.5,-28.5l-19,-17l-6.5,-4l-1.5,-3l-26,-13l-6,-1l-2,-2l-11,-4l-4,0l-3,-2l-5,0l-8,-3l-32,-6l-18,-1l-7,-2l-10,0l-1,-1l-28,-3l-40,-8l-29,-12q-11.2,-6.8 -19.5,-16.5l-6,-8l-9,-21l6.5,-1.5zm370.5,281l0,2l2,-1l-2,-1z" stroke="rgb(226,132,53)" fill="rgb(226,132,53)"/>
        <path id="svg_12" d="m513.5,467l-1,2l1,-2z" stroke="rgb(226,132,53)" fill="rgb(226,132,53)"/>
        <path id="svg_13" d="m516.5,467l2.5,0.5l-0.5,1.5l2.5,0.5l-2,0.5l1,2.5l-1.5,-0.5l-3,2l-0.5,-2.5l3,-1l-1.5,-2.5l-1.5,0.5l1.5,-1.5z" stroke="rgb(226,132,53)" fill="rgb(226,132,53)"/>
        <path id="svg_14" d="m520.5,467l5,1l2,-1l2,0q5.4,-1.9 4.5,1.5l-1.5,-0.5q-2.2,-0.7 -1.5,1.5l3,1l-0.5,1.5l2.5,1.5l-0.5,1.5l-0.5,-2l-2.5,1l-0.5,-3q-3.7,-1.5 -3,1.5q2.3,1.2 -0.5,2.5l-1,-3l-3.5,-1.5l1,-2.5l-4.5,0l0,-1zm7.5,1q0,3 -2,2l0,1l3,-1q2,1 1,-1l-2,-1z" stroke="rgb(226,132,53)" fill="rgb(226,132,53)"/>
        <path id="svg_15" d="m539.5,467l4.5,2.5l0,2l-0.5,1.5l-2,-3l-1.5,0.5l0.5,1.5l-1,-3l-1.5,-0.5l1.5,-1.5z" stroke="rgb(226,132,53)" fill="rgb(226,132,53)"/>
        <path id="svg_16" d="m545.5,467l3.5,0.5l-2,1q1.3,2.8 2.5,0.5l1.5,0l0,3q2.7,-1.1 2,1.5l-2.5,-1.5l-1.5,0.5q3.5,1.5 1,3q0.8,2.3 -1.5,1.5l-2.5,-5q3,1 2,-2q-2.7,1.1 -2,-1.5l-0.5,-1.5z" stroke="rgb(226,132,53)" fill="rgb(226,132,53)"/>
        <path id="svg_17" d="m458.5,468l-1,2l1,-2z" stroke="rgb(226,132,53)" fill="rgb(226,132,53)"/>
        <path id="svg_18" d="m491.5,469q4.8,-1.7 3.5,2.5l-0.5,1.5l1.5,0.5l-1.5,0.5l-5.5,-3.5l2.5,-1.5z" stroke="rgb(226,132,53)" fill="rgb(226,132,53)"/>
        <path id="svg_19" d="m498.5,469l2.5,1.5l-1.5,0.5l-1,-2z" stroke="rgb(226,132,53)" fill="rgb(226,132,53)"/>
        <path id="svg_20" d="m374.5,470l-1,2l1,-2z" stroke="rgb(226,132,53)" fill="rgb(226,132,53)"/>
        <path id="svg_21" d="m476.5,470l2,3l1.5,0.5l-1.5,0.5q-3.6,-1.1 -2,-4z" stroke="rgb(226,132,53)" fill="rgb(226,132,53)"/>
        <path id="svg_22" d="m478.5,470l1,2l-1,-2z" stroke="rgb(226,132,53)" fill="rgb(226,132,53)"/>
        <path id="svg_23" d="m484.5,470l0.5,2.5l-2.5,4.5l-1.5,-4q4.3,1.5 3.5,-3z" stroke="rgb(226,132,53)" fill="rgb(226,132,53)"/>
        <path id="svg_24" d="m486.5,470l3.5,5.5l-2,-1l-1.5,-4.5z" stroke="rgb(226,132,53)" fill="rgb(226,132,53)"/>
        <path id="svg_25" d="m414.5,471l1.5,0.5l-2,1l0.5,1.5q-3,-1.5 0,-3z" stroke="rgb(226,132,53)" fill="rgb(226,132,53)"/>
        <path id="svg_26" d="m432.5,471l1,2l-1.5,-0.5l-0.5,1.5l-0.5,-1.5l1.5,-1.5z" stroke="rgb(226,132,53)" fill="rgb(226,132,53)"/>
        <path id="svg_27" d="m472,471l3,0.5l-0.5,1.5l2.5,1.5l-4,1l4.5,0.5l2,0l1.5,0.5l-1.5,0.5q-1.5,-2.5 -3,1l-3,-1l-2,1l-2.5,-0.5l2,-3l-2,0q-0.7,-2.2 1.5,-1.5l2,1l-0.5,-1.5l0,-1.5z" stroke="rgb(226,132,53)" fill="rgb(226,132,53)"/>
        <path id="svg_28" d="m505.5,471l1,2l1,-2l2,0l2.5,1.5l-1.5,-0.5l-3.5,1.5l3,1q-0.7,2.3 1.5,1.5l0,1l-3,2l0.5,-1.5q0.8,-2.2 -1.5,-1.5l-3,-1l-1.5,-0.5l2,-0.5l0.5,-3z" stroke="rgb(226,132,53)" fill="rgb(226,132,53)"/>
        <path id="svg_29" d="m420,472l3,1.5q-1.5,3 -3,0l0,-1.5z" stroke="rgb(226,132,53)" fill="rgb(226,132,53)"/>
        <path id="svg_30" d="m498.5,472l3.5,1.5q-1.2,2.5 -5,1.5l1.5,-3z" stroke="rgb(226,132,53)" fill="rgb(226,132,53)"/>
        <path id="svg_31" d="m538.5,472q3,1.5 0,3q-3,-1.5 0,-3z" stroke="rgb(226,132,53)" fill="rgb(226,132,53)"/>
        <path id="svg_32" d="m447.5,474l2.5,0.5l-3,1.5l0.5,-2z" stroke="rgb(226,132,53)" fill="rgb(226,132,53)"/>
        <path id="svg_33" d="m512.5,474q2.3,-0.7 1.5,1.5l-1.5,-1.5z" stroke="rgb(226,132,53)" fill="rgb(226,132,53)"/>
        <path id="svg_34" d="m525.5,474l1.5,4l-4,-1.5l2,-0.5l0.5,-2z" stroke="rgb(226,132,53)" fill="rgb(226,132,53)"/>
        <path id="svg_35" d="m543.5,474l1.5,2.5l-2,-1l0.5,-1.5z" stroke="rgb(226,132,53)" fill="rgb(226,132,53)"/>
        <path id="svg_36" d="m494.5,475l1,3l1.5,-0.5l-1.5,1.5l-2.5,-0.5l1.5,-3.5z" stroke="rgb(226,132,53)" fill="rgb(226,132,53)"/>
        <path id="svg_37" d="m562.5,475l-1,2l1,-2z" stroke="rgb(226,132,53)" fill="rgb(226,132,53)"/>
        <path id="svg_38" d="m422.5,476l2.5,0.5l-2.5,0.5l0,-1z" stroke="rgb(226,132,53)" fill="rgb(226,132,53)"/>
        <path id="svg_39" d="m498.5,476l2.5,0.5l-0.5,2.5l-2.5,-1.5l0.5,-1.5z" stroke="rgb(226,132,53)" fill="rgb(226,132,53)"/>
        <path id="svg_40" d="m516.5,476l1,2l-1,-2z" stroke="rgb(226,132,53)" fill="rgb(226,132,53)"/>
        <path id="svg_41" d="m528.5,476l1.5,2.5l-2,-1l0.5,-1.5z" stroke="rgb(226,132,53)" fill="rgb(226,132,53)"/>
        <path id="svg_42" d="m554.5,476l1,2l-2.5,-0.5l1.5,-1.5z" stroke="rgb(226,132,53)" fill="rgb(226,132,53)"/>
        <path id="svg_43" d="m439.5,477l2.5,0.5l-2.5,0.5l0,-1z" stroke="rgb(226,132,53)" fill="rgb(226,132,53)"/>
        <path id="svg_44" d="m490,477l2,0.5l-0.5,2.5l-1.5,-3z" stroke="rgb(226,132,53)" fill="rgb(226,132,53)"/>
        <path id="svg_45" d="m502,477q3,-1 2,2q-3,1 -2,-2z" stroke="rgb(226,132,53)" fill="rgb(226,132,53)"/>
        <path id="svg_46" d="m514.5,477l1,2q-2.8,0.7 -1,-2z" stroke="rgb(226,132,53)" fill="rgb(226,132,53)"/>
        <path id="svg_47" d="m100.5,158l4,1l1,-1l13,0l1,1l49.5,0l-2,11.5l-7.5,8.5l-19,8l-17,0l-2,0l-5,-1l-2,1l-3,-1l-4,1l-2,0l-2,-1q-1.3,2.2 -6,1l-2,-2l-9,-1q-6.7,-2.2 -10.5,-7.5q-5.3,-6.9 -6,-17.5l29.5,0l1,-1z" stroke="rgb(230,107,40)" fill="rgb(230,107,40)"/>
        <path id="svg_48" d="m412,159l98.5,0q1.1,0.1 0.5,5.5l-4,11l-4.5,4.5l-12,5l-7,0l-2.5,2.5l3,28l23,45l5,18l2,15l2.5,3.5l13,-4l4,-3l13,-4l2,-2l22,-7l38,-9l22,-3l36,-8l4,-3l4,0l24,-15l12.5,-12.5l9,-18l2,-10l0,-12l-1.5,-1.5l-10,0l-8,-2l-10.5,-8.5q-4.4,-5.8 -4,-15.5l98.5,0q1.1,0.1 0.5,5.5q-1.6,9.5 -7.5,14.5l-6,4l-14,2l-1.5,1.5l-2,28l-1,1l-2,19l-4,15l-13,26l-14.5,16.5l-13,11l-26,14l-13,5l-3,0l-2,2l-14,5l-9,2l-2,2l-3,0l-31,15l-25,19l-37.5,35.5l-8,10l-1,5l13,41l4,8l-0.5,1.5l66,2l42,14l5,4q1.3,-2.3 2.5,0.5l-2,0q0.9,3.4 -4.5,1.5l-2,0l-11,0l-0.5,-1.5l-1,0l-0.5,1.5l-2,0l-10,0l-1,-1l-4,1l-2,-3l-1.5,3l-3.5,-1l-1,1l-12,0l-2,0l-13,0l-1,-1l-2,1l-2.5,-0.5l1,-3l-1.5,0.5q-2.2,-0.7 -1.5,1.5l0.5,1.5l-3,-1q-1.5,2.5 -3,-1l-1.5,0.5l0.5,1.5l-3.5,-2.5l2,-1l-3.5,-2.5q0.2,4.7 -3,6l-1,-2l2.5,-0.5l-1,-2l2.5,-2.5q1.5,3.5 3,1l3,1l2.5,-1l0,-3q-2.7,1.1 -2,-1.5l-1.5,0.5l-5,-1l0,1l3.5,1l-0.5,2l-4,-3l-1.5,0.5l0.5,-1.5l-4,-1l-4,1l-4,-1q-1.5,2.5 -3,-1q-2.2,-0.7 -1.5,1.5l-1,0l-0.5,-1.5l-1,2l-3,-1l-3,1q-1.2,-2.3 -6,-1l-1.5,-1.5q-0.7,-2.2 1.5,-1.5l1,-2l-4,2l-0.5,-2.5q0.8,-2.2 -1.5,-1.5l-2,1l0,-1q2.3,0.8 1.5,-1.5l-1,-2.5l-7.5,0l-1.5,1.5l1,2l-3,0l2,-3l-8.5,-0.5l0.5,1.5l1,2l-3,0l1,-2l-1.5,0.5l-1.5,-0.5l2,-1q-5.4,0.9 -7,-2l0,-16l1,-1l-1,-5l1,-1l2,-17l6,-19l0,-5l3,-13l0,-12l0,-2l-5,-25l-6,-12l-6,-9l-23.5,-24.5l-9.5,-7.5l3,-10l0,-26l-4,-19l-1,-12l-2,-6l0,-6l-3,-10l0,-6l-3,-9l0,-4l-1.5,-1.5l-15,0l-2,-2l-9,-1q-9.7,-2.3 -15.5,-8.5l-5,-16.5zm124,308l1,4l3,-2l3,2l1,-2q-2,1 -3,-2l-3,1l-2,-1zm9,0l1,1l-1,4l-1,-1l-1,2q4,-2 3,3l4,1l1,-2l-1,0l-2,0l2,-1l0,-2l3,2l2,-1l-4,-1l2,-1l-3,-3l-1,2l-2,-1l2,-1l-4,-1zm18,5l-2,2l2,0l0,-2zm-19,2l-2,2l2,0l0,-2zm40,6l-1,3l3,0l-2,-1l0,-2zm10,0l0,4l3,1q1,-3 -2,-2l-1,-3zm6,1l1,3q2,1 1,-2l-2,-1zm7,2l-2,3l1,3l2,-3l-1,-3zm5,0l0,1l2,0l-2,-1zm-19,2q-2,3 1,2l-1,-2zm5,3l0,1l2,0l-2,-1z" stroke="rgb(230,107,40)" fill="rgb(230,107,40)"/>
        <path id="svg_49" d="m402.5,467l1,1l1,-1l19,0l2,0q5.5,-1.5 7,1l5.5,-1l2,3.5l-2,4l3,2l-4,1.5l1,-2.5l-2,-1q1.5,4.4 -1.5,3.5l-2.5,-1.5q0.9,3 -3.5,1.5l-2,0q-5.5,1.5 -7,-1l-1,1l-22,0l-2,0l-3,-1l-10,2l-5.5,-1q1.3,-3 -2.5,-2l0,2l-3,-1l-2,0l-3,1l-2,0l-3,-1l-2,1l-4,-2l-4,0l-2,1l-4,-2l-4,1l-3,-1l-3,1l-5,-1l-1.5,0.5l-0.5,-1.5l-4,2l-1.5,-0.5q0.8,2.6 -2.5,1.5l-3,-1q-2.7,1.3 -0.5,2.5q0.8,2.6 -2.5,1.5l1,2l1.5,-0.5l-1,3.5l3,0.5l-2.5,0.5l-3,-5l-1,2l-1.5,-2.5l2,-1q-2,-3.5 -4,1q2.3,1.3 -0.5,2.5l-1.5,-0.5l-2.5,3.5l-2,1l-1,-2l1.5,0.5l0.5,-2.5l1,2l0.5,-3l2,-0.5l-0.5,-1.5l2.5,-0.5l-2.5,-1.5l-2.5,0.5q1.4,4.6 -4.5,2.5l-1.5,-0.5l2,5l-2.5,-1.5l-1.5,1.5l2,0.5q1.1,2.7 -1.5,2l-1.5,0.5l-0.5,-1.5l-1,2l-0.5,-2.5l2,-4.5l-2.5,1l-2,-3l4,1l0.5,-2l3,-0.5l-4,-1l6.5,-2.5l2,1l8,-4l2,0l15,-3l52,0l2,0l9,0l13,-2zm27.5,1l1,4l1,-3l-2,-1zm6,2l-3,1l-2,3l4,-2l0,2l3,0q1,-3 -1,-2l0,-1l-1,-1zm-16,2q-2,4 2,3l0,-2l-2,-1zm7,0l0,2l2,-1l-2,-1zm-113,1l-2,3l2,0l0,-3zm109,3l0,1l2,0l-2,-1zm-123,3l0,1l2,0l-2,-1z" stroke="rgb(230,107,40)" fill="rgb(230,107,40)"/>
        <path id="svg_50" d="m441.5,467l2.5,0.5l-0.5,1.5q2,-3 8,-2l-0.5,1.5q1.1,3.3 -1.5,2.5q-1.2,-2.2 -2.5,0.5l2.5,1.5l3.5,-1l3,4.5l-3,1.5l-0.5,-2q-1.5,3.5 -3,1l-3,-1l-3,2l-1,-2l2.5,-0.5l-5,-7l1.5,-1.5zm5.5,1l-2,2l3,0l-1,-2zm5,5l-2,1l-3,1q-1,2 3,1l2,0l0,-3z" stroke="rgb(230,107,40)" fill="rgb(230,107,40)"/>
        <path id="svg_51" d="m454.5,467q2.3,-0.7 1.5,1.5l-3,1l0.5,1.5q-3.5,-2 1,-4z" stroke="rgb(230,107,40)" fill="rgb(230,107,40)"/>
        <path id="svg_52" d="m457,467l4,0.5l-3.5,1.5l-0.5,-2z" stroke="rgb(230,107,40)" fill="rgb(230,107,40)"/>
        <path id="svg_53" d="m464.5,467l2.5,0.5l-3,0.5l-0.5,2l-0.5,-1.5l1.5,-1.5z" stroke="rgb(230,107,40)" fill="rgb(230,107,40)"/>
        <path id="svg_54" d="m477.5,467l4.5,2.5l-2,1l1.5,2.5q-2.2,0.8 -1.5,-1.5l-1,-3.5l-1.5,-1z" stroke="rgb(230,107,40)" fill="rgb(230,107,40)"/>
        <path id="svg_55" d="m497.5,467l2.5,0.5q-3.5,1.5 -1,3l-0.5,1.5l-1.5,-2.5l0.5,-2.5z" stroke="rgb(230,107,40)" fill="rgb(230,107,40)"/>
        <path id="svg_56" d="m502.5,467l-1,2l1,-2z" stroke="rgb(230,107,40)" fill="rgb(230,107,40)"/>
        <path id="svg_57" d="m518.5,468l2.5,0.5l-2.5,0.5l0,-1z" stroke="rgb(230,107,40)" fill="rgb(230,107,40)"/>
        <path id="svg_58" d="m486.5,469l1.5,0.5l-2,1l2,4l-2,-1l-1,-3l1.5,-1.5z" stroke="rgb(230,107,40)" fill="rgb(230,107,40)"/>
        <path id="svg_59" d="m469.5,470l1.5,2.5l-1,0l-0.5,-2.5z" stroke="rgb(230,107,40)" fill="rgb(230,107,40)"/>
        <path id="svg_60" d="m502.5,470q2.3,-0.7 1.5,1.5q-1.5,3 -3,0l1.5,-1.5z" stroke="rgb(230,107,40)" fill="rgb(230,107,40)"/>
        <path id="svg_61" d="m463.5,471l2.5,0.5l-1.5,2.5l-1,-3z" stroke="rgb(230,107,40)" fill="rgb(230,107,40)"/>
        <path id="svg_62" d="m475.5,471l1.5,2.5l-2,-1l0.5,-1.5z" stroke="rgb(230,107,40)" fill="rgb(230,107,40)"/>
        <path id="svg_63" d="m440.5,472l1,2l-1,-2z" stroke="rgb(230,107,40)" fill="rgb(230,107,40)"/>
        <path id="svg_64" d="m509.5,472l4,1l1.5,-0.5q-2.2,1.2 0.5,2.5l1.5,0.5l-4.5,1.5l0,-1q2.6,0.7 1.5,-2l-3.5,1l-2.5,-1.5l1.5,-1.5z" stroke="rgb(230,107,40)" fill="rgb(230,107,40)"/>
        <path id="svg_65" d="m523.5,472l2,1l2.5,-1l-0.5,4l-0.5,-2q-3.8,0.8 -3.5,-2z" stroke="rgb(230,107,40)" fill="rgb(230,107,40)"/>
        <path id="svg_66" d="m461.5,473l1.5,2.5l-2,-1l0.5,-1.5z" stroke="rgb(230,107,40)" fill="rgb(230,107,40)"/>
        <path id="svg_67" d="m491.5,473l3,1l3.5,2.5q-1.1,3.3 1.5,2.5l0,1q-4.2,1.3 -2.5,-3.5l-2,0l0.5,-1.5l-2,-1l-0.5,1.5l2,3l-2,1l0.5,-1.5l-2,1l0.5,-1.5l-0.5,-4.5z" stroke="rgb(230,107,40)" fill="rgb(230,107,40)"/>
        <path id="svg_68" d="m530.5,473l1,2l-2.5,-0.5l1.5,-1.5z" stroke="rgb(230,107,40)" fill="rgb(230,107,40)"/>
        <path id="svg_69" d="m470.5,474l0.5,1.5l-2,1l1.5,-2.5z" stroke="rgb(230,107,40)" fill="rgb(230,107,40)"/>
        <path id="svg_70" d="m522.5,474l0.5,1.5l-0.5,1.5l1.5,0.5l-5.5,2.5l-2,-1l-1.5,0.5l4.5,-3.5l1,2l2,-4z" stroke="rgb(230,107,40)" fill="rgb(230,107,40)"/>
        <path id="svg_71" d="m499,475l2,0.5l-0.5,2.5l-1.5,-3z" stroke="rgb(230,107,40)" fill="rgb(230,107,40)"/>
        <path id="svg_72" d="m533.5,475l4.5,2q1.4,4 -5.5,2l0,-2l-1.5,-0.5l2.5,-1.5z" stroke="rgb(230,107,40)" fill="rgb(230,107,40)"/>
        <path id="svg_73" d="m506,476l3,0.5l-1,2l1.5,2.5l-5.5,-1l0.5,-2l2,1l-0.5,-1.5l0,-1.5z" stroke="rgb(230,107,40)" fill="rgb(230,107,40)"/>
        <path id="svg_74" d="m527.5,477l0.5,2.5l-1.5,-0.5l-1.5,-0.5l2.5,-1.5z" stroke="rgb(230,107,40)" fill="rgb(230,107,40)"/>
        <path id="svg_75" d="m317,478l3,0.5q-3.1,1.8 -1.5,3.5l-1.5,-4z" stroke="rgb(230,107,40)" fill="rgb(230,107,40)"/>
        <path id="svg_76" d="m324.5,478l2.5,1.5l-3,1.5l0.5,2l1.5,-0.5q0.8,2.3 -1.5,1.5l-2.5,-3.5l2.5,-2.5z" stroke="rgb(230,107,40)" fill="rgb(230,107,40)"/>
        <path id="svg_77" d="m511.5,479l2.5,0.5q-2.1,3.3 -2.5,-0.5z" stroke="rgb(230,107,40)" fill="rgb(230,107,40)"/>
        <path id="svg_78" d="m568.5,479l-1,2l-1.5,-0.5l2.5,-1.5z" stroke="rgb(230,107,40)" fill="rgb(230,107,40)"/>
        <path id="svg_79" d="m284.5,480q3.7,2 2,4q2.3,-0.7 1.5,1.5l-0.5,1.5q2.3,0.8 1.5,-1.5l2,-1l-1,2l0.5,3.5l-3,-1l-1.5,0.5l0,-2l-0.5,-1.5l-2.5,0.5q-1.1,3.3 1.5,2.5l0,1q-3.3,1.1 -2.5,-1.5q-2.3,1.7 -4.5,-2.5l-1.5,1.5l0.5,1.5l-2.5,-0.5l2.5,-4.5q2,2.8 6.5,2l0.5,-2l1,2l1.5,-1.5l-0.5,-2.5q-2.8,0.7 -1,-2z" stroke="rgb(230,107,40)" fill="rgb(230,107,40)"/>
        <path id="svg_80" d="m339.5,480l1,2l-1,-2z" stroke="rgb(230,107,40)" fill="rgb(230,107,40)"/>
        <path id="svg_81" d="m563.5,480l3.5,2q1,3 -2,2l-1.5,-4z" stroke="rgb(230,107,40)" fill="rgb(230,107,40)"/>
        <path id="svg_82" d="m522.5,481l2.5,0.5l-0.5,1.5l3,-1l0,1l-3,1l-4.5,-0.5l2.5,-2.5z" stroke="rgb(230,107,40)" fill="rgb(230,107,40)"/>
        <path id="svg_83" d="m551.5,481l0.5,3l-3,-1.5l2,0l0.5,-1.5z" stroke="rgb(230,107,40)" fill="rgb(230,107,40)"/>
        <path id="svg_84" d="m279.5,482l2.5,1.5l-1.5,-0.5l-2,1l1,-2z" stroke="rgb(230,107,40)" fill="rgb(230,107,40)"/>
        <path id="svg_85" d="m542.5,482l-0.5,1.5l-0.5,1.5l-0.5,-1.5l1.5,-1.5z" stroke="rgb(230,107,40)" fill="rgb(230,107,40)"/>
        <path id="svg_86" d="m553.5,483l1,2l-1,-2z" stroke="rgb(230,107,40)" fill="rgb(230,107,40)"/>
        <path id="svg_87" d="m560.5,483l2.5,4.5l-1.5,-0.5q-3.5,0.8 -1,-4z" stroke="rgb(230,107,40)" fill="rgb(230,107,40)"/>
        <path id="svg_88" d="m322.5,484l0.5,2l-3,-0.5l2.5,-1.5z" stroke="rgb(230,107,40)" fill="rgb(230,107,40)"/>
        <path id="svg_89" d="m336.5,484l1,2q-2.8,0.7 -1,-2z" stroke="rgb(230,107,40)" fill="rgb(230,107,40)"/>
        <path id="svg_90" d="m274.5,485l-1.5,2.5l-0.5,1.5l-0.5,-1.5l2.5,-2.5z" stroke="rgb(230,107,40)" fill="rgb(230,107,40)"/>
        <path id="svg_91" d="m306.5,485l2.5,1.5l-3.5,1.5l0,-1l2.5,-0.5l-1.5,-1.5z" stroke="rgb(230,107,40)" fill="rgb(230,107,40)"/>
        <path id="svg_92" d="m508.5,485l0.5,1.5l-2,1l1.5,-2.5z" stroke="rgb(230,107,40)" fill="rgb(230,107,40)"/>
        <path id="svg_93" d="m526.5,485l3.5,3.5l-1.5,1.5l0,-2q-2.2,0.8 -1.5,-1.5l-0.5,-1.5z" stroke="rgb(230,107,40)" fill="rgb(230,107,40)"/>
        <path id="svg_94" d="m569.5,485l-1,2l1,-2z" stroke="rgb(230,107,40)" fill="rgb(230,107,40)"/>
        <path id="svg_95" d="m520.5,486l0.5,2.5l-2,1l1.5,-3.5z" stroke="rgb(230,107,40)" fill="rgb(230,107,40)"/>
        <path id="svg_96" d="m541.5,486l4.5,1.5l-3.5,0.5l-1,-2z" stroke="rgb(230,107,40)" fill="rgb(230,107,40)"/>
        <path id="svg_97" d="m550.5,486l3.5,1.5l-2.5,0.5l-1,-2z" stroke="rgb(230,107,40)" fill="rgb(230,107,40)"/>
        <path id="svg_98" d="m555.5,486l1.5,2.5l-2,-1l0.5,-1.5z" stroke="rgb(230,107,40)" fill="rgb(230,107,40)"/>
        <path id="svg_99" d="m565.5,486l2,3l-2,-3z" stroke="rgb(230,107,40)" fill="rgb(230,107,40)"/>
        <path id="svg_100" d="m266.5,487l1.5,2.5l-2,-1l0.5,-1.5z" stroke="rgb(230,107,40)" fill="rgb(230,107,40)"/>
        <path id="svg_101" d="m270.5,487l-1,2l1,-2z" stroke="rgb(230,107,40)" fill="rgb(230,107,40)"/>
        <path id="svg_102" d="m495.5,487l2.5,1.5l-1.5,-0.5l-1,-1z" stroke="rgb(230,107,40)" fill="rgb(230,107,40)"/>
        <path id="svg_103" d="m536.5,487l1.5,0.5l-0.5,2.5l-2.5,-0.5l1.5,-2.5z" stroke="rgb(230,107,40)" fill="rgb(230,107,40)"/>
        <path id="svg_104" d="m510.5,488l2,0q3.3,-1.1 2.5,1.5l-1.5,-0.5l-3.5,1l0.5,-2z" stroke="rgb(230,107,40)" fill="rgb(230,107,40)"/>
        <path id="svg_105" d="m539.5,488l1,2l-1,-2z" stroke="rgb(230,107,40)" fill="rgb(230,107,40)"/>
        <path id="svg_106" d="m564.5,488l-1,2l1,-2z" stroke="rgb(230,107,40)" fill="rgb(230,107,40)"/>
        <path id="svg_107" d="m151,556l319.5,0l0.5,0.5l0,10q2.2,1.3 1,6l0,2l0,23l-1,4l0,2l1,2l0,2l-1,6l0,2l1,4q-2.5,1.5 -1,7l0,2l1,2l-1,1l0,19l0,2l1,2l-1,5l1,5l-1,1l0,17l0,2l0,13l1,1l0,2l-1.5,2.5l-152,0l-3,2l-105.5,0l0,-12.5l7,-13l-24,-29l-23,-38l-12,-28l-7,-24l0,-4.5z" stroke="rgb(120,64,40)" fill="rgb(120,64,40)"/>
        <path id="svg_114" d="m444.5,467l0.5,2l-2,-0.5l1.5,-1.5z" stroke="rgb(139,69,19)" fill="rgb(139,69,19)"/>
        <path id="svg_115" d="m453.5,467q1.8,3.1 3.5,1.5l0.5,2.5l2,-3l0.5,2.5q0.8,2.3 -1.5,1.5l-1.5,0.5l-1.5,-2.5l-3,-1l-1.5,0.5q-0.7,-2.2 1.5,-1.5l1,-1z" stroke="rgb(139,69,19)" fill="rgb(139,69,19)"/>
        <path id="svg_116" d="m462.5,467l1.5,0.5l-1,2.5q-2.7,1.1 -2,-1.5l1.5,-1.5z" stroke="rgb(139,69,19)" fill="rgb(139,69,19)"/>
        <path id="svg_118" d="m528.5,467l1.5,2.5l-1,0l-0.5,-1.5l-1.5,0.5l1.5,-1.5z" stroke="rgb(139,69,19)" fill="rgb(139,69,19)"/>
        <path id="svg_119" d="m544.5,467l-1,2l1,-2z" stroke="rgb(139,69,19)" fill="rgb(139,69,19)"/>
        <path id="svg_120" d="m550.5,467l-1,2l1,-2z" stroke="rgb(139,69,19)" fill="rgb(139,69,19)"/>
        <path id="svg_121" d="m545,470l3,0.5l-2,0.5q1.1,2.7 -1.5,2l0.5,-1.5l0,-1.5z" stroke="rgb(139,69,19)" fill="rgb(139,69,19)"/>
        <path id="svg_122" d="m433.5,471l1.5,0.5l-2,0.5l-0.5,2l-0.5,-1.5l1.5,-1.5z" stroke="rgb(139,69,19)" fill="rgb(139,69,19)"/>
        <path id="svg_123" d="m313.5,473l0.5,3l-3,-1.5l2,0l0.5,-1.5z" stroke="rgb(139,69,19)" fill="rgb(139,69,19)"/>
        <path id="svg_124" d="m427.5,473l1,2l-1,-2z" stroke="rgb(139,69,19)" fill="rgb(139,69,19)"/>
        <path id="svg_125" d="m507.5,473l1,2l-1,-2z" stroke="rgb(139,69,19)" fill="rgb(139,69,19)"/>
        <path id="svg_126" d="m306.5,474l1,2l-2.5,-0.5l1.5,-1.5z" stroke="rgb(139,69,19)" fill="rgb(139,69,19)"/>
        <path id="svg_127" d="m511.5,474l1,2l-2.5,-0.5l1.5,-1.5z" stroke="rgb(139,69,19)" fill="rgb(139,69,19)"/>
        <path id="svg_128" d="m546.5,474l1.5,2.5l-2,-1l0.5,-1.5z" stroke="rgb(139,69,19)" fill="rgb(139,69,19)"/>
        <path id="svg_129" d="m411.5,475l-1,2l1,-2z" stroke="rgb(139,69,19)" fill="rgb(139,69,19)"/>
        <path id="svg_130" d="m439.5,475l-1,2l1,-2z" stroke="rgb(139,69,19)" fill="rgb(139,69,19)"/>
        <path id="svg_131" d="m299.5,479l2.5,0.5l-2.5,0.5l0,-1z" stroke="rgb(139,69,19)" fill="rgb(139,69,19)"/>
        <path id="svg_132" d="m585.5,479l1,2l1.5,-0.5q-1.2,3.3 -5,2.5l0.5,-3l0.5,2l2,-0.5l-0.5,-2.5z" stroke="rgb(139,69,19)" fill="rgb(139,69,19)"/>
        <path id="svg_133" d="m593.5,480l1.5,3q2.7,-1.1 2,1.5l2,0l-0.5,2.5l-1.5,-0.5q-0.8,2.6 2.5,1.5l0,1l-3.5,-1.5l1,-2l-2.5,-1.5l-1,3q-2.2,0.8 -1.5,-1.5l0.5,-2.5l1.5,0.5l-0.5,-3.5z" stroke="rgb(139,69,19)" fill="rgb(139,69,19)"/>
        <path id="svg_134" d="m599.5,481l2.5,1q1.1,2.7 -1.5,2l-1,-3z" stroke="rgb(139,69,19)" fill="rgb(139,69,19)"/>
        <path id="svg_135" d="m588.5,482l-1,2l1,-2z" stroke="rgb(139,69,19)" fill="rgb(139,69,19)"/>
        <path id="svg_136" d="m606.5,483l1.5,2.5l-2,3l0.5,1.5q-2.2,-0.7 -1.5,-4.5l1.5,-2.5z" stroke="rgb(139,69,19)" fill="rgb(139,69,19)"/>
        <path id="svg_137" d="m611.5,483l2.5,0.5l-2.5,0.5l0,-1z" stroke="rgb(139,69,19)" fill="rgb(139,69,19)"/>
        <path id="svg_138" d="m589.5,484l1,2l-1,-2z" stroke="rgb(139,69,19)" fill="rgb(139,69,19)"/>
        <path id="svg_139" d="m617.5,484l-1,2l1,-2z" stroke="rgb(139,69,19)" fill="rgb(139,69,19)"/>
        <path id="svg_140" d="m621.5,484l-1,2l-1.5,-0.5l2.5,-1.5z" stroke="rgb(139,69,19)" fill="rgb(139,69,19)"/>
        <path id="svg_141" d="m587.5,486l0.5,1.5l-1.5,2.5l-1.5,-3l2.5,-1z" stroke="rgb(139,69,19)" fill="rgb(139,69,19)"/>
        <path id="svg_142" d="m662.5,486l5.5,3.5l-4,0.5l-1.5,-4z" stroke="rgb(139,69,19)" fill="rgb(139,69,19)"/>
        <path id="svg_143" d="m621.5,487l1,2l-1,-2z" stroke="rgb(139,69,19)" fill="rgb(139,69,19)"/>
        <path id="svg_144" d="m625.5,487l1.5,2.5l-3,0.5l1.5,-3z" stroke="rgb(139,69,19)" fill="rgb(139,69,19)"/>
        <path id="svg_145" d="m590.5,488l2.5,0.5q-2.1,3.3 -2.5,-0.5z" stroke="rgb(139,69,19)" fill="rgb(139,69,19)"/>
        <path id="svg_146" d="m471,556l301,0.5l-9,32l-16,35l-18,29l-25,29l0,2l6,8l2,13.5l-105.5,0l-2,-2l-133.5,-0.5l1,-2l-1,-3l0,-13l1,-1l-1,-1l0,-17l0,-2l1,-5l-1,-5l1,-2l-1,-1l0,-19l0,-2l1,-2q-2.5,-1.5 -1,-7l0,-2l1,-4l-1,-4l1,-3l-1,-3l1,-2l-1,-4l1,-1l0,-23l0,-2l-1,-16.5z" stroke="rgb(110,58,38)" fill="rgb(110,58,38)"/>
        <path id="svg_149" d="m514.43335,480.06667" opacity="NaN" stroke="rgb(230,107,40)" fill="rgb(230,107,40)"/>
        <path id="svg_156" d="m402.5,467l1,1l1,-1l19,0l2,0q5.5,-1.5 7,1l5.5,-1l2,3.5l-2,4l3,2l-4,1.5l1,-2.5l-2,-1q1.5,4.4 -1.5,3.5l-2.5,-1.5q0.9,3 -3.5,1.5l-2,0q-5.5,1.5 -7,-1l-1,1l-22,0l-2,0l-3,-1l-10,2l-5.5,-1q1.3,-3 -2.5,-2l0,2l-3,-1l-2,0l-3,1l-2,0l-3,-1l-2,1l-4,-2l-4,0l-2,1l-4,-2l-4,1l-3,-1l-3,1l-5,-1l-1.5,0.5l-0.5,-1.5l-4,2l-1.5,-0.5q0.8,2.6 -2.5,1.5l-3,-1q-2.7,1.3 -0.5,2.5q0.8,2.6 -2.5,1.5l1,2l1.5,-0.5l-1,3.5l3,0.5l-2.5,0.5l-3,-5l-1,2l-1.5,-2.5l2,-1q-2,-3.5 -4,1q2.3,1.3 -0.5,2.5l-1.5,-0.5l-2.5,3.5l-2,1l-1,-2l1.5,0.5l0.5,-2.5l1,2l0.5,-3l2,-0.5l-0.5,-1.5l2.5,-0.5l-2.5,-1.5l-2.5,0.5q1.4,4.6 -4.5,2.5l-1.5,-0.5l2,5l-2.5,-1.5l-1.5,1.5l2,0.5q1.1,2.7 -1.5,2l-1.5,0.5l-0.5,-1.5l-1,2l-0.5,-2.5l2,-4.5l-2.5,1l-2,-3l4,1l0.5,-2l3,-0.5l-4,-1l6.5,-2.5l2,1l8,-4l2,0l15,-3l52,0l2,0l9,0l13,-2zm27.5,1l1,4l1,-3l-2,-1zm6,2l-3,1l-2,3l4,-2l0,2l3,0q1,-3 -1,-2l0,-1l-1,-1zm-16,2q-2,4 2,3l0,-2l-2,-1zm7,0l0,2l2,-1l-2,-1zm-113,1l-2,3l2,0l0,-3zm109,3l0,1l2,0l-2,-1zm-123,3l0,1l2,0l-2,-1z" stroke="rgb(230,107,40)" fill="rgb(230,107,40)"/>
        <path id="svg_157" d="m266.07466,466.89577l392.02313,0l0,0c51.35614,0 92.98843,16.34162 92.98843,36.50002c0,20.15839 -41.6323,36.5 -92.98843,36.5l-392.02313,0l0,0c-51.35609,0 -92.98843,-16.34161 -92.98843,-36.5c0,-20.15841 41.63234,-36.50002 92.98843,-36.50002z" fill="#845335"/>
        <path id="svg_1" d="m256.5,491l413,0l6,2q1.5,-2.5 7,-1l1,1l105,1q1.3,2.3 6,1l5.5,4.5l1,40q-2.8,1.8 -1,8l-4.5,5.5l-10,2l-12,0l-2,2l-621,0l-2,-2l-17,-1l-7.5,-5.5l-1,-31l1,-1l0,-17l4.5,-4.5l3,-1l27,0l1,-1l94,0l3,-2z" stroke="rgb(144,144,144)" fill="rgb(144,144,144)"/>
    </g>
</svg>