<svg width="864" height="730" xmlns="http://www.w3.org/2000/svg" version="1.1">
<path id="svg_2" d="m316.5,704l0.5,19l-107.5,0l-0.5,-0.5l0,-17.5l106.5,0l1,-1z" stroke="rgb(144,144,144)" fill="rgb(144,144,144)"/>
<path id="svg_3" d="m606,705l105.5,0l0.5,0.5l0,18.5l-105.5,0l-0.5,-0.5l0,-18.5z" stroke="rgb(144,144,144)" fill="rgb(144,144,144)"/>
<path id="svg_8" d="m710.5,10l41,0l1,1l30,0l1,1l9,0q14.2,2.3 24,9l13.5,10l7,9.5l6,12l4,16l1,21l-1,1l-1,16l-5,14q-6.7,14.3 -18.5,23.5l-19,10l-15,4l-101,0l-24,-7l-17.5,-13.5q-9.3,-8.7 -14,-22l-4,-17l-1,-19l1,-1l0,-8l2,-10l5,-15q5.6,-10.4 14.5,-17.5l9,-7l14,-6l11,-3l26,-1l1,-1z" stroke="rgb(26,163,83)" fill="rgb(26,163,83)"/>
<path id="svg_9" d="m73.5,11l94,0l15,3l12,5l16.5,11.5l11,14l2,5l6,21l1,15l-1,1l-1,16l-5,16q-5.8,12.7 -15.5,21.5l-12,9l-24,9l-50,0l-1,-1l-8,0l-4,0l-7,1l-2,-1l-1,1l-31,0l-2,-2l-6,0l-7,-2l-10,-5l-17.5,-14.5l-10,-18l-3,-10q1.5,-5.5 -1,-7l0,-32q5.1,-26.9 22.5,-41.5q7.8,-7.2 19,-11l20,-4z" stroke="rgb(26,163,83)" fill="rgb(26,163,83)"/>
<path id="svg_10" d="m419.5,11l88,0l1,1l9,0q12.2,2.3 21,8q11.2,6.8 19.5,16.5q8.2,11.2 12,27l1,11l1,1l0,19l-1,1l-1,11l-4,12q-4.5,11.5 -12.5,19.5l-21,14l-21,6l-101,0l-3,-2q-11.4,-0.6 -19,-5l-20.5,-16.5q-10.6,-12.4 -15,-31l0,-36q3.3,-15.2 10,-27l13.5,-14.5l16,-9l17,-5l9,0l1,-1z" stroke="rgb(26,163,83)" fill="rgb(26,163,83)"/>
<path id="svg_11" d="m103.5,186l2,1l2,0l4,-1l3,1l2,-1l5,1l2,0l15.5,0.5q-5.5,1.5 -4,10l7.5,9.5l7,5l17,5l10,0l1,1l35,0l1,-1l11,0l1,-1l48,-3l1,-1l16,-1l1,-1l1,1l14,0l1,1l17,1l33,6q8.1,3.9 19,5l31,11l20,10l5,4l4,0q5.3,-4.7 7.5,-12.5q-1.2,-4.7 1,-6l0,-19l-1,-1l0,-23.5l14.5,0l1.5,1.5l13,72l0,26l-3,10l13,11l20,21l6,9l6,12l5,25l0,2l0,12l-1,1l-2,17l-6,19l-3,22l0,2l0,16l1,1l-4.5,1.5l-2,-1l-2,0q-4.8,-1.2 -6,1q-1.5,-2.5 -7,-1l-2,0l-3.5,0.5l0.5,1.5q-2.2,0.8 -1.5,-1.5l-2.5,-0.5l-1.5,0.5l0.5,1.5q-1.5,-2.5 -3,1l-3,-3q-3.3,-1.1 -2.5,1.5l3,1l-3,1l0.5,1.5l-2.5,-1.5l-0.5,1.5l-3,-1l0.5,1.5l0.5,1.5l2.5,-1l1,3.5l-1.5,-0.5l-2.5,0.5l0.5,1.5l-2.5,-1.5l1,-3l-2,-1l-1,2l0.5,1.5l-3.5,-1l-1,-4l-2.5,1l-2,0l-2,1l-2.5,-1.5q3.1,-1.7 1.5,-3.5l1,3l3,-1l2,0l2.5,1.5l0.5,1.5l1.5,-0.5l0.5,1.5l0.5,-4q5.3,1.3 4.5,-2l3,0l0,-1q-5.7,-1.3 -7,2l0,-2l-4,1l-3,-1l-2,0l-5.5,0.5l1,2.5l-2,-0.5q2.3,-1.2 -0.5,-2.5l-2,1q-1.2,-2.2 -2.5,0.5l2.5,3.5l1,-2l0.5,1.5l-2,4.5l-3.5,-1l-2.5,1.5q-0.7,-2.2 1.5,-1.5l-1,-2l-1.5,0.5q-1.5,-4.4 1.5,-3.5l0,2q2.3,-0.7 1.5,1.5l1,0l1,-3l-2,-3.5q-5.2,-1 -7.5,2l0,-1l1.5,-0.5l-6.5,-0.5l0,2l-2,-2l-19,0l-2,0l-10.5,-0.5l5,-19l11,-18l8,-18l4,-5l0,-6l3,-10l0,-12l-4,-15l-2,-2l0,-3l-2,-2l0,-3l-5,-10l-21.5,-28.5l-19,-17l-6.5,-4l-1.5,-3l-26,-13l-6,-1l-2,-2l-11,-4l-4,0l-3,-2l-5,0l-8,-3l-32,-6l-18,-1l-7,-2l-10,0l-1,-1l-28,-3l-40,-8l-29,-12q-11.2,-6.8 -19.5,-16.5l-6,-8l-9,-21l6.5,-1.5zm370.5,281l0,2l2,-1l-2,-1z" stroke="rgb(226,132,53)" fill="rgb(226,132,53)"/>
<path id="svg_47" d="m100.5,158l4,1l1,-1l13,0l1,1l49.5,0l-2,11.5l-7.5,8.5l-19,8l-17,0l-2,0l-5,-1l-2,1l-3,-1l-4,1l-2,0l-2,-1q-1.3,2.2 -6,1l-2,-2l-9,-1q-6.7,-2.2 -10.5,-7.5q-5.3,-6.9 -6,-17.5l29.5,0l1,-1z" stroke="rgb(230,107,40)" fill="rgb(230,107,40)"/>
<path id="svg_48" d="m412,159l98.5,0q1.1,0.1 0.5,5.5l-4,11l-4.5,4.5l-12,5l-7,0l-2.5,2.5l3,28l23,45l5,18l2,15l2.5,3.5l13,-4l4,-3l13,-4l2,-2l22,-7l38,-9l22,-3l36,-8l4,-3l4,0l24,-15l12.5,-12.5l9,-18l2,-10l0,-12l-1.5,-1.5l-10,0l-8,-2l-10.5,-8.5q-4.4,-5.8 -4,-15.5l98.5,0q1.1,0.1 0.5,5.5q-1.6,9.5 -7.5,14.5l-6,4l-14,2l-1.5,1.5l-2,28l-1,1l-2,19l-4,15l-13,26l-14.5,16.5l-13,11l-26,14l-13,5l-3,0l-2,2l-14,5l-9,2l-2,2l-3,0l-31,15l-25,19l-37.5,35.5l-8,10l-1,5l13,41l4,8l-0.5,1.5l66,2l42,14l5,4q1.3,-2.3 2.5,0.5l-2,0q0.9,3.4 -4.5,1.5l-2,0l-11,0l-0.5,-1.5l-1,0l-0.5,1.5l-2,0l-10,0l-1,-1l-4,1l-2,-3l-1.5,3l-3.5,-1l-1,1l-12,0l-2,0l-13,0l-1,-1l-2,1l-2.5,-0.5l1,-3l-1.5,0.5q-2.2,-0.7 -1.5,1.5l0.5,1.5l-3,-1q-1.5,2.5 -3,-1l-1.5,0.5l0.5,1.5l-3.5,-2.5l2,-1l-3.5,-2.5q0.2,4.7 -3,6l-1,-2l2.5,-0.5l-1,-2l2.5,-2.5q1.5,3.5 3,1l3,1l2.5,-1l0,-3q-2.7,1.1 -2,-1.5l-1.5,0.5l-5,-1l0,1l3.5,1l-0.5,2l-4,-3l-1.5,0.5l0.5,-1.5l-4,-1l-4,1l-4,-1q-1.5,2.5 -3,-1q-2.2,-0.7 -1.5,1.5l-1,0l-0.5,-1.5l-1,2l-3,-1l-3,1q-1.2,-2.3 -6,-1l-1.5,-1.5q-0.7,-2.2 1.5,-1.5l1,-2l-4,2l-0.5,-2.5q0.8,-2.2 -1.5,-1.5l-2,1l0,-1q2.3,0.8 1.5,-1.5l-1,-2.5l-7.5,0l-1.5,1.5l1,2l-3,0l2,-3l-8.5,-0.5l0.5,1.5l1,2l-3,0l1,-2l-1.5,0.5l-1.5,-0.5l2,-1q-5.4,0.9 -7,-2l0,-16l1,-1l-1,-5l1,-1l2,-17l6,-19l0,-5l3,-13l0,-12l0,-2l-5,-25l-6,-12l-6,-9l-23.5,-24.5l-9.5,-7.5l3,-10l0,-26l-4,-19l-1,-12l-2,-6l0,-6l-3,-10l0,-6l-3,-9l0,-4l-1.5,-1.5l-15,0l-2,-2l-9,-1q-9.7,-2.3 -15.5,-8.5l-5,-16.5zm124,308l1,4l3,-2l3,2l1,-2q-2,1 -3,-2l-3,1l-2,-1zm9,0l1,1l-1,4l-1,-1l-1,2q4,-2 3,3l4,1l1,-2l-1,0l-2,0l2,-1l0,-2l3,2l2,-1l-4,-1l2,-1l-3,-3l-1,2l-2,-1l2,-1l-4,-1zm18,5l-2,2l2,0l0,-2zm-19,2l-2,2l2,0l0,-2zm40,6l-1,3l3,0l-2,-1l0,-2zm10,0l0,4l3,1q1,-3 -2,-2l-1,-3zm6,1l1,3q2,1 1,-2l-2,-1zm7,2l-2,3l1,3l2,-3l-1,-3zm5,0l0,1l2,0l-2,-1zm-19,2q-2,3 1,2l-1,-2zm5,3l0,1l2,0l-2,-1z" stroke="rgb(230,107,40)" fill="rgb(230,107,40)"/>
<path id="svg_107" d="m151,556l319.5,0l0.5,0.5l0,10q2.2,1.3 1,6l0,2l0,23l-1,4l0,2l1,2l0,2l-1,6l0,2l1,4q-2.5,1.5 -1,7l0,2l1,2l-1,1l0,19l0,2l1,2l-1,5l1,5l-1,1l0,17l0,2l0,13l1,1l0,2l-1.5,2.5l-152,0l-3,2l-105.5,0l0,-12.5l7,-13l-24,-29l-23,-38l-12,-28l-7,-24l0,-4.5z" stroke="rgb(120,64,40)" fill="rgb(120,64,40)"/>
<path id="svg_146" d="m471,556l301,0.5l-9,32l-16,35l-18,29l-25,29l0,2l6,8l2,13.5l-105.5,0l-2,-2l-133.5,-0.5l1,-2l-1,-3l0,-13l1,-1l-1,-1l0,-17l0,-2l1,-5l-1,-5l1,-2l-1,-1l0,-19l0,-2l1,-2q-2.5,-1.5 -1,-7l0,-2l1,-4l-1,-4l1,-3l-1,-3l1,-2l-1,-4l1,-1l0,-23l0,-2l-1,-16.5z" stroke="rgb(110,58,38)" fill="rgb(110,58,38)"/>
<path id="svg_157" d="m266.07466,466.89577l392.02313,0l0,0c51.35614,0 92.98843,16.34162 92.98843,36.50002c0,20.15839 -41.6323,36.5 -92.98843,36.5l-392.02313,0l0,0c-51.35609,0 -92.98843,-16.34161 -92.98843,-36.5c0,-20.15841 41.63234,-36.50002 92.98843,-36.50002z" fill="#845335"/>
<path id="svg_1" d="m256.5,491l413,0l6,2q1.5,-2.5 7,-1l1,1l105,1q1.3,2.3 6,1l5.5,4.5l1,40q-2.8,1.8 -1,8l-4.5,5.5l-10,2l-12,0l-2,2l-621,0l-2,-2l-17,-1l-7.5,-5.5l-1,-31l1,-1l0,-17l4.5,-4.5l3,-1l27,0l1,-1l94,0l3,-2z" stroke="rgb(144,144,144)" fill="rgb(144,144,144)"/>
</svg>