<?xml version="1.0" encoding="UTF-8"?>
<svg xmlns="http://www.w3.org/2000/svg" viewBox="0 0 111 111" width="111" height="111">
  <defs>
    <linearGradient id="python-blue" x1="0" y1="0" x2="62" y2="54" gradientUnits="userSpaceOnUse">
      <stop offset="0" stop-color="#5a9fd4"/>
      <stop offset="1" stop-color="#306998"/>
    </linearGradient>
    <linearGradient id="python-yellow" x1="70" y1="98" x2="48" y2="66" gradientUnits="userSpaceOnUse">
      <stop offset="0" stop-color="#ffd43b"/>
      <stop offset="1" stop-color="#ffe873"/>
    </linearGradient>
  </defs>
  <path
    fill="url(#python-blue)"
    d="M54.918785 0.00091927421C50.335132 0.02221727 45.957846 0.41313697 42.106285 1.0946693 30.760069 3.0991731 28.700036 7.2947714 28.700035 15.032169v10.21875h26.8125v3.40625h-26.8125-10.0625c-7.792459 0-14.6157588 4.683717-16.7499998 13.59375-2.46181998 10.212966-2.57101508 16.586023 0 27.25 1.9059283 7.937852 6.4575432 13.593748 14.2499998 13.59375h9.21875v-12.25c0-8.849902 7.657144-16.656248 16.75-16.65625h26.78125c7.454951 0 13.406253-6.138164 13.40625-13.625v-25.53125c0-7.2663386-6.12998-12.7247771-13.40625-13.9374997C64.281548 0.32794397 59.502438-0.02037903 54.918785 0.00091927421ZM40.418785 8.2196694c2.769547 0 5.03125 2.2986456 5.03125 5.1249996-0.000002 2.816336-2.261703 5.09375-5.03125 5.09375-2.779476-0.000001-5.03125-2.277415-5.03125-5.09375-0.000001-2.826353 2.251774-5.1249996 5.03125-5.1249996Z"/>
  <path
    fill="url(#python-yellow)"
    d="M85.637535 28.657169v11.90625c0 9.230755-7.825895 16.999999-16.75 17h-26.78125c-7.335833 0-13.406249 6.278483-13.40625 13.625v25.531247c0 7.266344 6.318588 11.540324 13.40625 13.625004 8.487331 2.49561 16.626237 2.94663 26.78125 0 6.750155-1.95439 13.406253-5.88761 13.40625-13.625004V86.500919h-26.78125v-3.40625h26.78125 13.406254c7.792461 0 10.696251-5.435408 13.406241-13.59375 2.79933-8.398886 2.68022-16.475776 0-27.25-1.92578-7.757441-5.60387-13.59375-13.406241-13.59375ZM70.575035 93.313419c2.779478 0.000003 5.03125 2.277417 5.03125 5.093747-0.000002 2.826354-2.251775 5.125004-5.03125 5.125004-2.76955 0-5.03125-2.29865-5.03125-5.125004 0.000002-2.81633 2.261697-5.093747 5.03125-5.093747Z"/>
</svg>
